<svg xmlns="http://www.w3.org/2000/svg" width="479.223" height="304.134" viewBox="0 0 479.223 304.134">
  <g id="Gruppe_1" data-name="Gruppe 1" transform="translate(-1373.867 26.312) rotate(-20)">
    <g id="Komponente_1_5" data-name="Komponente 1 – 5" transform="translate(1256.298 565.269)">
      <path id="Pfad_45" data-name="Pfad 45" d="M1345.85,598.87c.216,3.6.65,7.2.594,10.791-.07,4.365-.42,8.738-.891,13.081-.722,6.678-2.682,13.071-4.709,19.455a106.456,106.456,0,0,1-6.725,17.212,50.272,50.272,0,0,1-3.279,5.667c-3.024,4.312-6.013,8.669-9.327,12.753-5.531,6.813-11.567,13.151-19.636,17.013a84.413,84.413,0,0,1-15.779,6.032c-2.607.658-5.217,1.3-7.827,1.96a4.338,4.338,0,0,1-.74.213c-5.513.33-10.858,1.882-16.336,2.354a46.446,46.446,0,0,1-9.984-.287,161.282,161.282,0,0,1-19.907-4.25,8.914,8.914,0,0,0-1.475-.431c-3.948-.3-7.364-2.171-10.825-3.807-2.891-1.368-5.663-3.014-8.42-4.648a73.9,73.9,0,0,1-15.5-11.992c-5.542-5.706-11.057-11.474-14.935-18.566a83.675,83.675,0,0,1-8.387-21.071c-.88-3.756-2.094-7.455-2.672-11.252a151.894,151.894,0,0,1-2.149-27.665c.2-6.469.709-12.866,2.582-19.046a74.152,74.152,0,0,1,10.152-21.508,88.432,88.432,0,0,1,24.262-23.386c10.341-6.731,21.341-12.206,33.427-15.269a112.4,112.4,0,0,1,21.647-3.084c4.1-.221,8.184-.623,12.263-1.07a29.7,29.7,0,0,1,15.344,2.659,9.623,9.623,0,0,1,2.812,1.966,7.3,7.3,0,0,0,4.407,2.1c1.526.2,3.043.471,4.559.736a16.129,16.129,0,0,1,8.22,3.875,19.953,19.953,0,0,0,5.859,3.611,23.819,23.819,0,0,1,9.042,6.313c2.625,2.983,5.083,6.079,7.556,9.179a103.267,103.267,0,0,1,6.293,8.244,47.766,47.766,0,0,1,5.052,9.471c1.183,3.242,2.927,6.229,3.723,9.674a59.029,59.029,0,0,1,1.568,13.35q0,4.811,0,9.622Zm-57.3-75.1a5.563,5.563,0,0,0-3.442-2.487,32.556,32.556,0,0,0-13.951-1.9c-5.353.584-10.724,1.152-16.1,1.329a88.024,88.024,0,0,0-21.167,3.742,95.737,95.737,0,0,0-21.125,9.157c-2.559,1.456-5.164,2.85-7.614,4.472-2.563,1.7-5.019,3.573-7.422,5.493a81.4,81.4,0,0,0-7.591,6.512,107.318,107.318,0,0,0-8.9,10.627,67.215,67.215,0,0,0-10.957,23.216,81.579,81.579,0,0,0-2.043,28.734c.771,8.566,1.642,17.143,4.078,25.482a139.222,139.222,0,0,0,6.274,17.764c3.969,8.909,10.27,16.007,16.857,22.834a73.318,73.318,0,0,0,17.482,13.171c2.022,1.115,3.995,2.339,6.081,3.319,2.662,1.251,5.322,2.772,8.151,3.336,4.27.851,8.439,2.073,12.689,2.959,4.386.914,8.769,1.962,13.207,2.483,5.9.693,11.748-.357,17.541-1.517.873-.176,1.75-.347,2.631-.486,2.148-.338,4.338-.5,6.441-1.011,4.108-1,8.243-1.968,12.23-3.352a60.755,60.755,0,0,0,13.281-6.028,63.732,63.732,0,0,0,15.6-14.766c3.144-4.062,6.1-8.273,9.072-12.468a48.569,48.569,0,0,0,2.785-4.615c3.575-6.454,5.688-13.485,7.914-20.462a84.05,84.05,0,0,0,4.3-20.72,135.234,135.234,0,0,0,.156-15.435c-.231-4.109-.516-8.228-.471-12.339a73.242,73.242,0,0,0-.915-11.912,37.938,37.938,0,0,0-2.063-7.006c-.784-2.169-1.831-4.24-2.721-6.372a62.1,62.1,0,0,0-8.044-13.1c-2.378-3.178-5.024-6.151-7.539-9.225-3.2-3.918-6.805-7.266-11.644-9.134a15.48,15.48,0,0,1-5.279-3.063,15.209,15.209,0,0,0-6.262-3.582c-2.261-.728-4.577-1.689-7.037-.48-.366.18-.994-.084-1.469-.24-2.913-.964-5.822-1.933-8.712-2.963-.372-.131-.615-.621-1.419-1.478Z" transform="translate(-1166.894 -517.911)"/>
    </g>
    <g id="Komponente_2_5" data-name="Komponente 2 – 5" transform="translate(1480.851 593.793)">
      <path id="Pfad_46" data-name="Pfad 46" d="M1467.752,380.188c0,5.528.182,10.487-.042,15.427-.366,8.043.352,16.041.579,24.058a11.661,11.661,0,0,1-.355,3.324,10.293,10.293,0,0,1-1.235-4.938,231.272,231.272,0,0,1-.637-24.945c.118-3.206-.113-6.426-.053-9.637.026-1.415-1.058-2.4-1.2-3.533-.137-1.073,1.168-2.131,1.055-3.557-.149-1.874-.035-3.77-.035-5.409l-2.238-1.79a3.676,3.676,0,0,1,.483-.9c1.992-1.8,4.637-1.57,7-2,2.606-.479,5.127,2.967,4.488,5.606a10.224,10.224,0,0,1-4.007,5.573C1470.3,378.458,1468.958,379.33,1467.752,380.188Zm.126-2.923c3.836-2.127,5.056-3.24,5.783-5.107a2.476,2.476,0,0,0-1.913-3.621,9.482,9.482,0,0,0-2.6.058,1.8,1.8,0,0,0-1.623,1.783A22.706,22.706,0,0,0,1467.879,377.265Z" transform="translate(-1306.15 -302.479)"/>
      <path id="Pfad_47" data-name="Pfad 47" d="M1459.466,355.44a12.661,12.661,0,0,1-1.6.7c-12.232,3.331-24.517,6.477-36.551,10.489-6.358,2.12-12.733,4.18-19.073,6.347-1.759.6-3.632,1.107-4.877,2.668l.674,2.147c-2.08.492-3.814.362-5.446-1.147a13.533,13.533,0,0,1,2.637-6.185c2.508.452.5,2.175,1.133,3.093.133.033.3.138.4.093,7.872-3.442,16.073-5.961,24.209-8.668,9.413-3.135,19.051-5.473,28.611-8.081,2.94-.8,5.938-1.395,8.919-2.047C1458.679,354.812,1458.929,355.1,1459.466,355.44Z" transform="translate(-1392.592 -316.356)"/>
      <path id="Pfad_48" data-name="Pfad 48" d="M1439.845,425.633c-.82-.938-1.106-1.113-1.153-1.337a106.117,106.117,0,0,1-2.362-28.775c.417-6.12.947-12.245.413-18.388.75-1.827-.537-3.009-1.492-4.3l1.821-4.679c1.741.279,3.419.475,5.061.84a2.556,2.556,0,0,1,1.632,3.184,14.235,14.235,0,0,1-2.016,3.814,21.457,21.457,0,0,1-2.71,2.657,5.109,5.109,0,0,0-.266.98c-.324,7.892-.681,15.784-.938,23.679-.211,6.473,1.042,12.808,2,19.168A26.484,26.484,0,0,1,1439.845,425.633Zm-.464-50.413a3.381,3.381,0,0,0,2.231-2.863,1.024,1.024,0,0,0-1.585-1.078C1438.676,372.062,1438.647,372.373,1439.381,375.22Z" transform="translate(-1340.655 -300.152)"/>
      <path id="Pfad_49" data-name="Pfad 49" d="M1493.252,375.457l-2.049-2.315c-1.4-.126-2.1.667-2.6,1.943a28.288,28.288,0,0,0,1.678,2.557c3.887,4.752,5.291,10.427,5.5,16.316a31.508,31.508,0,0,1-1.506,9.444,56.323,56.323,0,0,1-7.859,16.059,10.3,10.3,0,0,1-2.781,2.745c-2.914,1.951-4.386,1.561-6.881-1.543.24-.071.541-.268.71-.186,1.035.5,1.973,1.375,3.24,1.016a7.477,7.477,0,0,0,3.976-2.594,38.614,38.614,0,0,0,3.129-4.757c2.9-5.269,5.4-10.742,6.1-16.771a25.04,25.04,0,0,0-4.887-18.589c-.617-.818-1.313-1.579-1.863-2.435a2.488,2.488,0,0,1,.326-3.213,6.455,6.455,0,0,1,.958-.9c1.06-.787,2.2-1.763,3.563-1.069C1493.316,371.832,1493.454,373.215,1493.252,375.457Z" transform="translate(-1290.132 -296.777)"/>
      <path id="Pfad_50" data-name="Pfad 50" d="M1463.4,376.544c-.731-1.036-1.275-1.8-1.8-2.544a1.2,1.2,0,0,0-1.439,1.308,19.822,19.822,0,0,0,.452,3.437,83.882,83.882,0,0,1,2.191,15.148c.257,10.753-3.127,20.388-8.93,29.271-1.384,2.115-3.049,4-5.967,3.73-.359-.035-.69-.37-1.388-.77,4.093-.914,6.16-3.748,7.826-6.79a59.335,59.335,0,0,0,5.978-15.465,43.135,43.135,0,0,0,.364-15.263c-.417-3.176-1.22-6.3-1.814-9.458a37.991,37.991,0,0,1-.559-3.892,4.2,4.2,0,0,1,1.222-3.187,2.187,2.187,0,0,1,3.661.461C1463.6,373.659,1464.2,374.9,1463.4,376.544Z" transform="translate(-1326.934 -296.332)"/>
      <path id="Pfad_51" data-name="Pfad 51" d="M1486.185,392.133c-.228-.339-.492-.554-.505-.783-.524-9.8-.1-19.514,2.388-29.072.881-3.382,1.515-6.828,2.346-10.223a45.277,45.277,0,0,0,1.5-11.673,7.058,7.058,0,0,1,.576-2.488c.073-.2.666-.22,1.318-.406a15.465,15.465,0,0,1,.115,1.807c-.441,7.9-2.268,15.545-4.12,23.2a87.763,87.763,0,0,0-2.779,22.049c.035,2.182-.133,4.368-.266,6.548C1486.739,391.428,1486.4,391.747,1486.185,392.133Z" transform="translate(-1279.497 -337.489)"/>
      <path id="Pfad_52" data-name="Pfad 52" d="M1478.249,349.963c-3.422,1.333-4.156,4.229-4.147,7.444,0,1.736.264,3.473.419,5.207.361,4.067.705,8.141-.543,12.119a9.777,9.777,0,0,1-1.563,3.056c-.836,1.069-1.73.579-2.732-.45,3.029-2.32,3.55-5.537,3.45-8.91-.073-2.466-.324-4.93-.561-7.389a21.321,21.321,0,0,1,.464-8.218,5.98,5.98,0,0,1,3.71-3.974C1477.223,348.645,1477.506,348.845,1478.249,349.963Z" transform="translate(-1298.732 -323.745)"/>
      <path id="Pfad_53" data-name="Pfad 53" d="M1433.819,374.846c-.9-3-.687-5.91-.661-8.784a31.9,31.9,0,0,1,.406-5.225,70.453,70.453,0,0,0,.681-16.106,12.91,12.91,0,0,1,.119-1.672c1.118-.4,1.424.3,1.433,1a102.036,102.036,0,0,1-.039,11.766,109.964,109.964,0,0,0-.836,16.993,7.12,7.12,0,0,1-.26,1.7C1434.648,374.576,1434.446,374.6,1433.819,374.846Z" transform="translate(-1343.253 -330.85)"/>
      <path id="Pfad_54" data-name="Pfad 54" d="M1494.11,360.408c.344,4.235.834,7.843.881,11.456.069,5.1-.08,10.2,1.08,15.221a5.687,5.687,0,0,1-.208,3.187,4.6,4.6,0,0,1-.654-1.089,48.7,48.7,0,0,1-1.878-12.476c-.033-4.364-.444-8.724-.656-13.086A3,3,0,0,1,1494.11,360.408Z" transform="translate(-1270.78 -309.585)"/>
      <path id="Pfad_55" data-name="Pfad 55" d="M1452.074,361.224c-.721.355-1.1.7-1.474.7a4.518,4.518,0,0,1-4.679-3.67c-.477-2.548,1.627-6.932,3.943-8.211a1.594,1.594,0,0,1,2.22,1.306,4.542,4.542,0,0,1-1.6,3.448c-.809.827-1.739,1.537-2.53,2.377a1.688,1.688,0,0,0,.408,2.306C1449.342,360.016,1450.382,360.439,1452.074,361.224Z" transform="translate(-1327.747 -322.391)"/>
      <path id="Pfad_56" data-name="Pfad 56" d="M1475.423,379.609c-1.409-2.455-1.39-4.377.2-6.919l.865,2.847c.241-.027.55.033.72-.093,1.275-.951,2.473-2.014,3.794-2.889a1.91,1.91,0,0,1,2.949.745c.865,1.5,1.639,3.049,2.45,4.579-.778.787-1.364.24-1.807-.291-.827-.991-1.556-2.065-2.258-3.009-1.379-.322-1.982.614-2.7,1.266C1478.375,377,1477.377,378.458,1475.423,379.609Z" transform="translate(-1292.992 -295.301)"/>
      <path id="Pfad_57" data-name="Pfad 57" d="M1471.968,350.986c-1.965,4.579-3.788,7.1-6.6,9.2-2.2-2.8-2.921-6.032-3.393-9.881,3.155,1.426,1.663,4.881,3.976,6.52C1468.222,355.468,1468.675,352.088,1471.968,350.986Z" transform="translate(-1308.113 -321.89)"/>
      <path id="Pfad_58" data-name="Pfad 58" d="M1485.692,353.776c-1.836,1.217-3.506,2.322-5.051,3.344-1.5-.534-1.758-1.6-1.18-2.523a11.551,11.551,0,0,1,2.881-3.164c1.632-1.18,4.63-.175,5.575,1.7.517,1.022.9,2.109,1.313,3.082-.41.778-.9.925-1.381.368C1487.113,355.729,1486.468,354.8,1485.692,353.776Z" transform="translate(-1287.175 -321.131)"/>
      <path id="Pfad_59" data-name="Pfad 59" d="M1454.076,373.986c-3.852-.7-5.3,3.009-8.13,3.856-1.364-1.621-1.364-1.621-.865-4.045,1-.328,1.051.778,1.661,1.073.237-.06.564-.044.743-.2,1.678-1.448,3.428-2.69,5.805-2.59a2.337,2.337,0,0,1,2.2,1.118,9.6,9.6,0,0,1,.851,5.058c-.723-.364-1.1-.43-1.16-.6C1454.81,376.56,1454.5,375.441,1454.076,373.986Z" transform="translate(-1329.056 -295.379)"/>
      <path id="Pfad_60" data-name="Pfad 60" d="M1443.049,352.6a6.023,6.023,0,0,1-3.568,4.655,1.761,1.761,0,0,1-2.359-.361,2.064,2.064,0,0,1-.377-2.41c1-2.1,2.083-2.739,4.515-2.5A8.994,8.994,0,0,1,1443.049,352.6Z" transform="translate(-1339.118 -319.9)"/>
      <path id="Pfad_61" data-name="Pfad 61" d="M1472.053,378.01a1.959,1.959,0,0,1-1.927-1.892,4.181,4.181,0,0,1,2.182-3.9,2.083,2.083,0,0,1,1.57.131,1.991,1.991,0,0,1,.809.949C1476.244,376.316,1476.087,377.345,1472.053,378.01Z" transform="translate(-1298.202 -295.343)"/>
      <path id="Pfad_62" data-name="Pfad 62" d="M1478.052,358.2c-3.63-2.395-3.834-2.785-3.3-6.012,2.435-.022,1,3.324,3.453,3.586,1.674-.652,2.277-2.863,4.191-4.3a5.863,5.863,0,0,1,.111,1.836C1481.76,355.492,1480.134,356.911,1478.052,358.2Z" transform="translate(-1292.827 -320.455)"/>
      <path id="Pfad_63" data-name="Pfad 63" d="M1441.125,351.452l2.313,3.2c1.477-1.222,2.847-2.359,4.448-3.686-.337,2.83-.913,3.559-4.623,6.094C1441.688,355.884,1440.271,354.66,1441.125,351.452Z" transform="translate(-1333.817 -321.08)"/>
      <path id="Pfad_64" data-name="Pfad 64" d="M1443.336,373.013a33.439,33.439,0,0,1,.355,7.661c-2.038-.53-1.563-2.08-1.661-3.229C1441.894,375.858,1441.547,374.12,1443.336,373.013Z" transform="translate(-1332.547 -294.238)"/>
      <path id="Pfad_65" data-name="Pfad 65" d="M1495.224,380.237a11.28,11.28,0,0,1,1.253,1.834c.058.14-.5.745-.829.8a1.239,1.239,0,0,1-1.517-1.111C1494.1,381.39,1494.676,380.967,1495.224,380.237Z" transform="translate(-1268.968 -285.442)"/>
      <path id="Pfad_66" data-name="Pfad 66" d="M1468.187,351.977c1.612,1.118,1.83,1.628,1.209,2.654a.856.856,0,0,1-.705.284c-.222-.024-.595-.273-.6-.433C1468.066,353.7,1468.141,352.913,1468.187,351.977Z" transform="translate(-1300.676 -319.85)"/>
      <path id="Pfad_67" data-name="Pfad 67" d="M1469.383,347.265c.348.233.721.408.7.481a6.039,6.039,0,0,1-.453,1.031c-.111-.093-.31-.18-.315-.275C1469.3,348.13,1469.35,347.755,1469.383,347.265Z" transform="translate(-1299.181 -325.587)"/>
      <path id="Pfad_68" data-name="Pfad 68" d="M1442.979,370.108l.583.492-.914.674c-.1-.259-.3-.534-.264-.778C1442.4,370.343,1442.769,370.237,1442.979,370.108Z" transform="translate(-1331.972 -297.775)"/>
    </g>
  </g>
</svg>
