<svg xmlns="http://www.w3.org/2000/svg" width="35.21" height="55.51" viewBox="0 0 35.21 55.51">
  <g id="Gruppe_3" data-name="Gruppe 3" transform="matrix(0.995, 0.105, -0.105, 0.995, -1473.945, -691.824)">
    <path id="Pfad_69" data-name="Pfad 69" d="M1555.211,534.221a2.551,2.551,0,0,1,2.76-.674,63.666,63.666,0,0,1,7.171,2.423,9.494,9.494,0,0,1,4.788,4.906,32.469,32.469,0,0,1,2.9,12.909c.008,2.308-.909,4.334-1.525,6.45a23.885,23.885,0,0,1-1.6,3.925,3.32,3.32,0,0,0-.338,2.328c.5,2.267.94,4.547,1.5,6.8.415,1.666.974,3.3,1.482,4.94a19.116,19.116,0,0,0,.781,2.3c.965,2.1.089,3.641-1.938,5.157a1.615,1.615,0,0,1-2.413-.356,8.411,8.411,0,0,1-1.081-2.153c-.844-2.6-1.6-5.229-2.419-7.836-.514-1.632-1.09-3.243-1.685-5a12.8,12.8,0,0,0-1.852.227c-.581.161-1.1.556-1.682.694-2.756.654-5.355.667-7.724-1.359-1.8-1.534-3.517-3.027-4.343-5.332a12.92,12.92,0,0,0-1.055-1.841,23.648,23.648,0,0,1-1-22.169,9.074,9.074,0,0,1,5.32-5.117,1.646,1.646,0,0,1,2.067.289c-.2.152-.372.382-.571.413a7.394,7.394,0,0,0-5.481,3.9,21.646,21.646,0,0,0-2.521,12.015,23.007,23.007,0,0,0,2.976,9.8,20.925,20.925,0,0,1,.938,1.9,12.836,12.836,0,0,0,5.713,6.087,6.227,6.227,0,0,0,5.316.264c3.425-1.248,6.725-2.947,8.623-6.267,2.129-3.725,3.584-7.717,3.211-12.131a32.642,32.642,0,0,0-1.593-8.025,12.725,12.725,0,0,0-3.612-5.531,9.022,9.022,0,0,0-2.546-1.576A23.454,23.454,0,0,0,1555.211,534.221Zm12.377,32.961a7.018,7.018,0,0,0-2.862,2.167c.995,3.454,1.93,6.749,2.9,10.034a34.554,34.554,0,0,0,1.271,3.721,8.022,8.022,0,0,0,1.221,1.6c1.775-1.516,1.887-1.628,1.741-3.073a11.833,11.833,0,0,0-.583-2.646,44.154,44.154,0,0,1-2.118-8.188A5.574,5.574,0,0,0,1567.589,567.182Z" transform="translate(0 0)"/>
    <path id="Pfad_70" data-name="Pfad 70" d="M1551.675,535.472c.014.049.028.1.04.143l-.677-.2c.051-.064.124-.19.149-.181A4.572,4.572,0,0,1,1551.675,535.472Z" transform="translate(3.951 0.989)"/>
  </g>
</svg>
